<?xml version="1.0" standalone="no"?>
<!DOCTYPE svg PUBLIC "-//W3C//DTD SVG 20010904//EN"
 "http://www.w3.org/TR/2001/REC-SVG-20010904/DTD/svg10.dtd">
<svg version="1.0" xmlns="http://www.w3.org/2000/svg"
 width="470.000000pt" height="470.000000pt" viewBox="0 0 470.000000 470.000000"
 preserveAspectRatio="xMidYMid meet">
<metadata>
Created by potrace 1.11, written by Peter Selinger 2001-2013
</metadata>
<g transform="translate(0.000000,470.000000) scale(0.100000,-0.100000)"
fill="#000000" stroke="none">
<path d="M2165 4694 c-342 -37 -600 -109 -869 -245 -605 -304 -1053 -860
-1221 -1514 -54 -209 -69 -340 -69 -585 0 -245 15 -376 69 -585 212 -827 864
-1479 1690 -1690 218 -56 332 -69 585 -69 253 0 367 13 585 69 826 211 1478
863 1690 1690 54 209 69 340 69 585 0 245 -15 376 -69 585 -234 913 -1002
1604 -1935 1740 -102 15 -445 27 -525 19z m-276 -1021 c7 -16 130 -291 273
-613 143 -322 280 -623 304 -670 74 -144 162 -227 294 -278 l55 -21 -147 0
c-82 -1 -148 -3 -148 -5 0 -11 441 -795 485 -861 68 -103 158 -189 234 -223
l59 -27 -431 0 -432 0 54 22 c31 12 73 41 96 63 39 40 40 41 40 113 -1 86 -31
154 -97 217 -70 69 -266 148 -372 151 -21 0 -11 5 31 14 127 28 179 74 168
148 -3 21 -36 98 -74 170 -38 73 -74 151 -81 175 l-13 42 -111 0 -111 1 39 19
c97 49 135 122 115 224 -5 27 -75 199 -156 380 -193 436 -196 447 -197 611 -1
101 3 142 17 185 25 72 78 190 87 190 4 0 12 -12 19 -27z m1086 -633 c158
-355 300 -667 317 -695 70 -115 144 -180 264 -231 l59 -25 -125 6 c-286 14
-437 77 -533 223 -54 81 -338 719 -369 829 -32 111 -31 260 1 363 28 92 80
195 91 184 4 -5 137 -299 295 -654z m-1469 -771 c35 -57 109 -115 187 -148
l72 -30 -330 0 -330 0 80 38 c47 22 98 56 123 81 36 37 96 141 117 205 5 16
12 6 32 -45 15 -36 36 -81 49 -101z m273 -1077 c42 -83 102 -142 188 -183 l69
-34 -303 0 c-167 0 -303 1 -303 2 0 0 29 15 65 31 96 45 155 106 201 207 32
68 40 80 45 62 3 -12 20 -50 38 -85z"/>
</g>
</svg>
